<?xml version="1.0" encoding="UTF-8" standalone="no"?>
<!-- Created with Inkscape (http://www.inkscape.org/) -->

<svg
   width="32"
   height="32"
   viewBox="0 0 32 32"
   version="1.1"
   id="SVGRoot"
   xmlns="http://www.w3.org/2000/svg"
   xmlns:svg="http://www.w3.org/2000/svg">
  <defs
     id="defs010" />
  <g
     id="g001">
    <path
       style="fill:#bc2424;fill-opacity:1;stroke:none;stroke-linecap:round;stroke-linejoin:round;stroke-dasharray:1, 8;paint-order:markers fill stroke"
       d="m 23.9605,12.9568 -7.5614,-0.0209 -8.44141,0.0281 3.80651,-4.57482 4.1859,-5.13303 3.7549,4.59575 z m 1.967503,5.895795 c 0.206619,3.931675 -2.535122,7.553636 -6.063049,9.060469 -2.618132,1.18624 -5.78714,1.195907 -8.323015,-0.214539 -3.7471837,-1.641998 -5.7710364,-5.953876 -5.3734266,-9.917428 0.2094164,-2.710379 1.6283101,-5.304341 3.8742236,-6.85682 3.353762,-2.7491178 8.475745,-2.4929578 11.893681,0.0032 2.550805,1.771792 3.985829,4.850918 3.991586,7.925146 z"
       id="path001" />
    <path
       style="fill:#ffffff;fill-opacity:1;stroke:none;stroke-width:0.04;stroke-linecap:round;stroke-linejoin:round;stroke-dasharray:0.04, 0.319999;stroke-dashoffset:0;paint-order:markers fill stroke"
       d="m 15.998047,9.4707031 c -1.639255,2.0311619 -3.288631,4.0528999 -4.958985,6.0585939 0.01367,-6.5e-5 0.02734,6.4e-5 0.04102,0 -0.835753,1.174583 -1.3061036,2.627778 -1.2617186,4.054687 -0.00398,1.673068 0.8529706,3.241203 2.1210936,4.298828 1.083368,1.058042 2.576315,1.517465 4.0625,1.470704 v -15.8789066 c -0.0011,-0.00143 -0.0028,-0.00248 -0.0039,-0.00391 z"
       id="path002" />
  </g>
</svg>
